<svg width="297" height="353" viewBox="0 0 297 353" fill="none" xmlns="http://www.w3.org/2000/svg">
<path d="M5.7569 143H68.9788V213C84.4079 212.571 114.715 213 149.982 213C185.248 213 219.413 212.652 230.985 213V143H291.737" stroke="#DDDDDD" stroke-width="2"/>
<path d="M148.966 347L150 1" stroke="#DDDDDD" stroke-width="2"/>
<path d="M81.8207 19C81.8207 19 104.546 0.919387 150.231 1.0001C195.916 1.08081 220.119 19 220.119 19" stroke="#DDDDDD" stroke-width="2"/>
<path d="M19.5866 213C19.5866 213 1.72585 189.995 1.80558 143.747C1.88531 97.5 19.5866 73 19.5866 73" stroke="#DDDDDD" stroke-width="2"/>
<path d="M277.413 213C277.413 213 295.274 189.995 295.194 143.747C295.115 97.5 277.413 73 277.413 73" stroke="#DDDDDD" stroke-width="2"/>
<path d="M220.119 334C220.119 334 197.393 352.081 151.708 352C106.023 351.919 81.8207 334 81.8207 334" stroke="#DDDDDD" stroke-width="2"/>
</svg>
