<svg width="144" height="146" viewBox="0 0 144 146" fill="none" xmlns="http://www.w3.org/2000/svg">
<g id="Vector 51" filter="url(#filter0_d_656_845)">
<path d="M54.1286 14.5715L53.9573 14.64L53.8217 14.7652L47.3217 20.7652L47.2586 20.8234L47.2064 20.8916L35.7544 35.829L6.31157 63.7747L5.97238 64.0966L6.00201 64.5634L8.00201 96.0634L8.01814 96.3174L8.15377 96.5328L16.6127 109.968L24.5821 128.397L24.6466 128.546L24.7548 128.667L33.2548 138.167L33.5529 138.5H34H45.8903L54.7831 140.476L54.9194 140.506L55.0587 140.498L72.0587 139.498L72.4286 139.477L72.695 139.219L87.5435 124.865L106.346 117.938L106.614 117.84L106.789 117.614L113.789 108.614L113.961 108.393L113.993 108.116L116.478 86.7477L121.374 74.5073L134.783 57.6219L134.948 57.4142L134.988 57.1521L138.988 31.1521L139 31.0765V31V14V13.5316L138.64 13.2318L129.64 5.73178L129.362 5.5H129H107.5H107.451L107.402 5.50484L66.9017 9.50484L66.7604 9.5188L66.6286 9.57152L54.1286 14.5715Z" stroke="white" stroke-width="2" shape-rendering="crispEdges"/>
</g>
<defs>
<filter id="filter0_d_656_845" x="0.944824" y="0.5" width="143.055" height="145.013" filterUnits="userSpaceOnUse" color-interpolation-filters="sRGB">
<feFlood flood-opacity="0" result="BackgroundImageFix"/>
<feColorMatrix in="SourceAlpha" type="matrix" values="0 0 0 0 0 0 0 0 0 0 0 0 0 0 0 0 0 0 127 0" result="hardAlpha"/>
<feOffset/>
<feGaussianBlur stdDeviation="2"/>
<feComposite in2="hardAlpha" operator="out"/>
<feColorMatrix type="matrix" values="0 0 0 0 1 0 0 0 0 1 0 0 0 0 1 0 0 0 1 0"/>
<feBlend mode="normal" in2="BackgroundImageFix" result="effect1_dropShadow_656_845"/>
<feBlend mode="normal" in="SourceGraphic" in2="effect1_dropShadow_656_845" result="shape"/>
</filter>
</defs>
</svg>
