<svg width="145" height="105" viewBox="0 0 145 105" fill="none" xmlns="http://www.w3.org/2000/svg">
<g id="Vector 50" filter="url(#filter0_d_656_843)">
<path d="M5 70.5V70.9142L5.29289 71.2071L12.7929 78.7071L12.9328 78.847L13.1154 78.9231L37.0696 88.904L56.5259 99.3805L56.7657 99.5096L57.0379 99.4993L96.5379 97.9993L96.6268 97.9959L96.7137 97.9769L112.714 94.4769L112.775 94.4635L112.834 94.4424L128.334 88.9424L128.505 88.8818L128.644 88.7649L138.144 80.7649L138.5 80.4652V80V67.5V67.3626L138.463 67.2304L135.054 55.0567L139.928 42.8714L140 42.6926V42.5V29.5V29.0622L139.678 28.7652L133.178 22.7652L133.142 22.7321L133.103 22.7026L114.603 8.70259L114.487 8.61477L114.351 8.56367L110.5 7.11961L108.125 5.21913L107.851 5H107.5H93.5H93.2516L93.0321 5.11621L84.6291 9.56488L64.7348 15.0358L64.6653 15.0549L64.5992 15.0838L56.5992 18.5838L56.3829 18.6785L56.2318 18.8598L48.8416 27.728L14.4892 48.1403L14.3697 48.2113L14.274 48.3123L5.27405 57.8123L5 58.1015V58.5V70.5Z" stroke="white" stroke-width="2" shape-rendering="crispEdges"/>
</g>
<defs>
<filter id="filter0_d_656_843" x="0" y="0" width="145" height="104.519" filterUnits="userSpaceOnUse" color-interpolation-filters="sRGB">
<feFlood flood-opacity="0" result="BackgroundImageFix"/>
<feColorMatrix in="SourceAlpha" type="matrix" values="0 0 0 0 0 0 0 0 0 0 0 0 0 0 0 0 0 0 127 0" result="hardAlpha"/>
<feOffset/>
<feGaussianBlur stdDeviation="2"/>
<feComposite in2="hardAlpha" operator="out"/>
<feColorMatrix type="matrix" values="0 0 0 0 1 0 0 0 0 1 0 0 0 0 1 0 0 0 1 0"/>
<feBlend mode="normal" in2="BackgroundImageFix" result="effect1_dropShadow_656_843"/>
<feBlend mode="normal" in="SourceGraphic" in2="effect1_dropShadow_656_843" result="shape"/>
</filter>
</defs>
</svg>
