<svg width="128" height="140" viewBox="0 0 128 140" fill="none" xmlns="http://www.w3.org/2000/svg">
<g filter="url(#filter0_d_656_842)">
<path d="M5 99V99.3787L5.2508 99.6623L35.7508 134.162L36.0347 134.483L36.463 134.499L49.963 134.999L50.1119 135.005L50.2559 134.967L67.1301 130.5H74.5H74.8927L75.1805 130.233L82.1805 123.733L82.2703 123.649L82.3374 123.547L105.837 87.5466L105.939 87.3902L105.978 87.2075L109.463 70.7773L114.939 55.8443L114.955 55.8L114.967 55.7545L122.467 27.2545L122.5 27.1294V27V13V12.5654L122.182 12.2689L114.682 5.26894L114.394 5H114H101.5H101.318L101.147 5.06423L66.6474 18.0642L66.4801 18.1273L66.3451 18.2443L51.4129 31.1855L38.0705 39.0921L16.1583 47.0602L15.9327 47.1422L15.7689 47.3177L8.76894 54.8177L8.54273 55.0601L8.50612 55.3896L7.00709 68.8808L5.00822 84.372L5 84.4358V84.5V99Z" stroke="white" stroke-width="2" shape-rendering="crispEdges"/>
</g>
<defs>
<filter id="filter0_d_656_842" x="0" y="0" width="127.5" height="140.01" filterUnits="userSpaceOnUse" color-interpolation-filters="sRGB">
<feFlood flood-opacity="0" result="BackgroundImageFix"/>
<feColorMatrix in="SourceAlpha" type="matrix" values="0 0 0 0 0 0 0 0 0 0 0 0 0 0 0 0 0 0 127 0" result="hardAlpha"/>
<feOffset/>
<feGaussianBlur stdDeviation="2"/>
<feComposite in2="hardAlpha" operator="out"/>
<feColorMatrix type="matrix" values="0 0 0 0 1 0 0 0 0 1 0 0 0 0 1 0 0 0 1 0"/>
<feBlend mode="normal" in2="BackgroundImageFix" result="effect1_dropShadow_656_842"/>
<feBlend mode="normal" in="SourceGraphic" in2="effect1_dropShadow_656_842" result="shape"/>
</filter>
</defs>
</svg>
