<svg width="133" height="133" viewBox="0 0 133 133" fill="none" xmlns="http://www.w3.org/2000/svg">
<g id="&#230;&#152;&#159;&#233;&#173;&#130;1&#232;&#190;&#185;&#230;&#161;&#134;" filter="url(#filter0_d_273_720)">
<path d="M14 5H13.5858L13.2929 5.29289L6.79289 11.7929L6.54833 12.0375L6.50712 12.3809L5.00712 24.8809L5 24.9402V25V40V40.2146L5.08808 40.4104L14.0648 60.3587L22.0476 85.3048L22.1082 85.4942L22.2366 85.6459L27.7366 92.1459L27.8692 92.3026L28.0528 92.3944L36.8681 96.8021L44.7351 106.144L44.8536 106.285L45.0144 106.374L49.5144 108.874L49.625 108.936L49.7476 108.968L72.6464 114.941L92.5528 124.894L92.7293 124.983L92.9261 124.997L119.926 126.997L120.383 127.031L120.707 126.707L127.207 120.207L127.523 119.892L127.499 119.446L126.499 100.946L126.492 100.83L126.46 100.719L114.5 59.8567V40V39.626L114.255 39.3438L104.255 27.8438L104.094 27.6592L103.867 27.5696L87.4876 21.1173L70.5924 8.69435L70.3281 8.5H70H60H59.9351L59.8707 8.5084L48.5586 9.98388L28.7425 5.02986L28.6231 5H28.5H14Z" stroke="white" stroke-width="2" shape-rendering="crispEdges"/>
</g>
<defs>
<filter id="filter0_d_273_720" x="0" y="0" width="132.545" height="132.062" filterUnits="userSpaceOnUse" color-interpolation-filters="sRGB">
<feFlood flood-opacity="0" result="BackgroundImageFix"/>
<feColorMatrix in="SourceAlpha" type="matrix" values="0 0 0 0 0 0 0 0 0 0 0 0 0 0 0 0 0 0 127 0" result="hardAlpha"/>
<feOffset/>
<feGaussianBlur stdDeviation="2"/>
<feComposite in2="hardAlpha" operator="out"/>
<feColorMatrix type="matrix" values="0 0 0 0 1 0 0 0 0 1 0 0 0 0 1 0 0 0 1 0"/>
<feBlend mode="normal" in2="BackgroundImageFix" result="effect1_dropShadow_273_720"/>
<feBlend mode="normal" in="SourceGraphic" in2="effect1_dropShadow_273_720" result="shape"/>
</filter>
</defs>
</svg>
