<svg width="123" height="149" viewBox="0 0 123 149" fill="none" xmlns="http://www.w3.org/2000/svg">
<g id="Vector 52" filter="url(#filter0_d_656_846)">
<path d="M40.5 5H40.135L39.8559 5.23509L30.3559 13.2351L30.1025 13.4485L30.0266 13.771L28.0816 22.0373L17.2366 34.8541L17.0539 35.07L17.0114 35.3496L13.5326 58.2104L5.09132 76.5825L5 76.7813V77V92V92.4361L5.31955 92.7328L26.3195 112.233L26.4783 112.38L26.6838 112.449L46.1144 118.926L94.5491 143.393L94.7618 143.5H95H110H110.436L110.733 143.18L117.233 136.18L117.54 135.85L117.495 135.4L113.027 90.7186L114.868 87.4961L115 87.2656V87V72.5V72.1657L114.799 71.8986L81.2989 27.3986L81.1922 27.2568L81.0433 27.1604L72.608 21.7023L54.1656 5.2537L53.8812 5H53.5H40.5Z" stroke="white" stroke-width="2" shape-rendering="crispEdges"/>
</g>
<defs>
<filter id="filter0_d_656_846" x="0" y="0" width="122.58" height="148.5" filterUnits="userSpaceOnUse" color-interpolation-filters="sRGB">
<feFlood flood-opacity="0" result="BackgroundImageFix"/>
<feColorMatrix in="SourceAlpha" type="matrix" values="0 0 0 0 0 0 0 0 0 0 0 0 0 0 0 0 0 0 127 0" result="hardAlpha"/>
<feOffset/>
<feGaussianBlur stdDeviation="2"/>
<feComposite in2="hardAlpha" operator="out"/>
<feColorMatrix type="matrix" values="0 0 0 0 1 0 0 0 0 1 0 0 0 0 1 0 0 0 1 0"/>
<feBlend mode="normal" in2="BackgroundImageFix" result="effect1_dropShadow_656_846"/>
<feBlend mode="normal" in="SourceGraphic" in2="effect1_dropShadow_656_846" result="shape"/>
</filter>
</defs>
</svg>
