<svg width="148" height="117" viewBox="0 0 148 117" fill="none" xmlns="http://www.w3.org/2000/svg">
<g id="Vector 53" filter="url(#filter0_d_656_847)">
<path d="M68.5 6H68.254L68.036 6.11417L15.536 33.6142L15.4175 33.6762L15.3195 33.7672L8.31955 40.2672L8 40.5639V41V47.8637L5.53648 56.7324L5.5 56.8637V57V71V71.39L5.76407 71.6771L17.1644 84.0687L25.1002 100.436L25.1737 100.588L25.2929 100.707L33.7929 109.207L34.0858 109.5H34.5H53.869L61.2423 111.466L61.369 111.5H61.5H78.5H78.9638L79.2634 111.146L90.1602 98.2679L103.024 90.3517L103.091 90.3104L103.151 90.2593L110.151 84.2593L110.298 84.1335L110.387 83.9621L128.845 48.5424L142.789 30.6139L143 30.3431V30V16.5V16.1492L142.781 15.8753L138.781 10.8753L138.63 10.687L138.41 10.5881L128.41 6.08808L128.186 5.98731L127.941 6.00173L94.0472 7.9955L81.1521 6.01163L81.0765 6H81H68.5Z" stroke="white" stroke-width="2" shape-rendering="crispEdges"/>
</g>
<defs>
<filter id="filter0_d_656_847" x="0.5" y="0.974609" width="147.5" height="115.525" filterUnits="userSpaceOnUse" color-interpolation-filters="sRGB">
<feFlood flood-opacity="0" result="BackgroundImageFix"/>
<feColorMatrix in="SourceAlpha" type="matrix" values="0 0 0 0 0 0 0 0 0 0 0 0 0 0 0 0 0 0 127 0" result="hardAlpha"/>
<feOffset/>
<feGaussianBlur stdDeviation="2"/>
<feComposite in2="hardAlpha" operator="out"/>
<feColorMatrix type="matrix" values="0 0 0 0 1 0 0 0 0 1 0 0 0 0 1 0 0 0 1 0"/>
<feBlend mode="normal" in2="BackgroundImageFix" result="effect1_dropShadow_656_847"/>
<feBlend mode="normal" in="SourceGraphic" in2="effect1_dropShadow_656_847" result="shape"/>
</filter>
</defs>
</svg>
