<svg width="32" height="32" viewBox="0 0 32 32" fill="none" xmlns="http://www.w3.org/2000/svg">
<circle cx="16" cy="16" r="16" fill="#F3F9FF" fill-opacity="0.4"/>
<path d="M22.25 16C22.25 16.1989 22.171 16.3897 22.0303 16.5303C21.8897 16.671 21.6989 16.75 21.5 16.75H16.75V21.5C16.75 21.6989 16.671 21.8897 16.5303 22.0303C16.3897 22.171 16.1989 22.25 16 22.25C15.8011 22.25 15.6103 22.171 15.4697 22.0303C15.329 21.8897 15.25 21.6989 15.25 21.5V16.75H10.5C10.3011 16.75 10.1103 16.671 9.96967 16.5303C9.82902 16.3897 9.75 16.1989 9.75 16C9.75 15.8011 9.82902 15.6103 9.96967 15.4697C10.1103 15.329 10.3011 15.25 10.5 15.25H15.25V10.5C15.25 10.3011 15.329 10.1103 15.4697 9.96967C15.6103 9.82902 15.8011 9.75 16 9.75C16.1989 9.75 16.3897 9.82902 16.5303 9.96967C16.671 10.1103 16.75 10.3011 16.75 10.5V15.25H21.5C21.6989 15.25 21.8897 15.329 22.0303 15.4697C22.171 15.6103 22.25 15.8011 22.25 16Z" fill="white"/>
</svg>
