<svg width="308" height="366" viewBox="0 0 308 366" fill="none" xmlns="http://www.w3.org/2000/svg">
<path d="M71.1401 168C87.0211 181.737 120.484 200 156.784 200C193.083 200 225.979 179.135 237.89 168" stroke="#DDDDDD" stroke-width="2"/>
<path d="M22.233 130L2 175.5L72.2341 289.997C81.2642 281.664 114.01 277 158.157 277C202.304 277 233.172 284.667 242.202 293L306.013 175.503L285.78 130" stroke="#DDDDDD" stroke-width="2"/>
<path d="M153 347L153 4" stroke="#DDDDDD" stroke-width="2"/>
<path d="M84.3581 19C84.3581 19 107.749 0.919387 154.772 1.0001C201.795 1.08081 226.705 19 226.705 19" stroke="#DDDDDD" stroke-width="2"/>
<path d="M221 365C221 365 198.274 346.919 152.589 347C106.904 347.081 82.7021 365 82.7021 365" stroke="#DDDDDD" stroke-width="2"/>
</svg>
