<svg width="36" height="36" viewBox="0 0 36 36" fill="none" xmlns="http://www.w3.org/2000/svg">
<g id="Star" filter="url(#filter0_d_195_492)">
<path id="Star 1" d="M17.5311 3.26725C17.6922 2.83194 18.3078 2.83194 18.4689 3.26725L19.3877 5.75011C20.9069 9.8559 24.1441 13.0931 28.2499 14.6123L30.7327 15.5311C31.1681 15.6922 31.1681 16.3078 30.7327 16.4689L28.2499 17.3877C24.1441 18.9069 20.9069 22.1441 19.3877 26.2499L18.4689 28.7327C18.3078 29.1681 17.6922 29.1681 17.5311 28.7327L16.6123 26.2499C15.0931 22.1441 11.8559 18.9069 7.75011 17.3877L5.26725 16.4689C4.83194 16.3078 4.83194 15.6922 5.26725 15.5311L7.75011 14.6123C11.8559 13.0931 15.0931 9.8559 16.6123 5.75011L17.5311 3.26725Z" fill="#FFD070"/>
</g>
<defs>
<filter id="filter0_d_195_492" x="0" y="0" width="36" height="36" filterUnits="userSpaceOnUse" color-interpolation-filters="sRGB">
<feFlood flood-opacity="0" result="BackgroundImageFix"/>
<feColorMatrix in="SourceAlpha" type="matrix" values="0 0 0 0 0 0 0 0 0 0 0 0 0 0 0 0 0 0 127 0" result="hardAlpha"/>
<feOffset dy="2"/>
<feGaussianBlur stdDeviation="2"/>
<feComposite in2="hardAlpha" operator="out"/>
<feColorMatrix type="matrix" values="0 0 0 0 0 0 0 0 0 0 0 0 0 0 0 0 0 0 0.25 0"/>
<feBlend mode="normal" in2="BackgroundImageFix" result="effect1_dropShadow_195_492"/>
<feBlend mode="normal" in="SourceGraphic" in2="effect1_dropShadow_195_492" result="shape"/>
</filter>
</defs>
</svg>
